<?xml version="1.0" encoding="utf-8"?>
<!-- Generator: Adobe Illustrator 24.3.2, SVG Export Plug-In . SVG Version: 6.00 Build 0)  -->
<svg version="1.1" id="Layer_1" xmlns="http://www.w3.org/2000/svg" xmlns:xlink="http://www.w3.org/1999/xlink" x="0px" y="0px"
	 viewBox="0 0 141.7 107.7" style="enable-background:new 0 0 141.7 107.7;" xml:space="preserve">
<style type="text/css">
	.st0{fill:#FFFFFF;}
</style>
<g>
	<g>
		<path class="st0" d="M25.6,72.4c-1.2-0.8-3.5-1.7-5.9-1.7c-2.5,0-4.1,1.1-4.1,2.7c0,1.5,1.3,2.1,3.5,2.4l2.1,0.3
			c3.9,0.5,6.2,2.2,6.2,5.2c0,3.5-3.1,5.7-8.1,5.7c-2.3,0-5.3-0.5-7.7-2.3l1.5-2.3c1.4,1.1,3.2,1.9,6.3,1.9c3,0,4.8-1,4.8-2.8
			c0-1.3-1.2-2.2-3.7-2.5l-2.1-0.3c-4.1-0.5-6.1-2.3-6.1-5.1c0-3.5,2.9-5.6,7.4-5.6c2.9,0,5.5,0.8,7.3,2L25.6,72.4z"/>
		<path class="st0" d="M46.6,79c0,5.5-4,8-8.3,8c-4.4,0-8.4-2.5-8.4-8V68.3h3.2v10.3c0,3.7,2.2,5.4,5.2,5.4s5.2-1.7,5.2-5.4V68.3
			h3.2L46.6,79z"/>
		<path class="st0" d="M65.2,70.6L54,83.8h11.4v2.8H49.8v-2.3l11.4-13.1H50.1v-2.9h15.1V70.6z"/>
		<path class="st0" d="M85.6,86.6h-3.2v-2.4C81,85.9,78.9,87,76,87c-5.1,0-9.1-4-9.1-9.5s4-9.5,9.1-9.5c2.9,0,5,1.1,6.4,2.8v-2.5
			h3.2V86.6z M70.1,77.5c0,3.6,2.5,6.6,6.3,6.6c3.7,0,6.3-2.8,6.3-6.6s-2.6-6.6-6.3-6.6C72.6,70.9,70.1,73.8,70.1,77.5z"/>
		<path class="st0" d="M106.7,75.3v11.4h-3.2V76.3c0-3.4-1.8-5.3-5-5.3c-2.9,0-5.4,2-5.4,5.4v10.3H90V68.3h3.1v2.4
			c1.5-2.1,3.9-2.8,6-2.8C103.6,68,106.7,70.9,106.7,75.3z"/>
		<path class="st0" d="M128.8,77.5c0,5.4-4.1,9.5-9.7,9.5c-5.5,0-9.7-4.1-9.7-9.5s4.1-9.5,9.7-9.5C124.7,68,128.8,72.1,128.8,77.5z
			 M112.7,77.5c0,3.8,2.8,6.6,6.4,6.6s6.4-2.8,6.4-6.6s-2.8-6.6-6.4-6.6S112.7,73.7,112.7,77.5z"/>
		<path class="st0" d="M72.4,33.7c0.8-3.2,1.2-6.5,1.1-9.8l0-0.1c5.7-0.6,12.2-1.3,15.9-3.9h0c0.5,3.3,1.1,8.6-5.4,17.7
			c-6.6,9.2-16.8,14.1-25.3,16.8v0c2-1.6,3.9-3.4,5.6-5.4C68.3,44.4,71,39.3,72.4,33.7z M70.1,24.2L70.1,24.2
			c-7.9,0.8-13.5,3.3-17,7.7c-3.9,4.9-5.2,12.1-4,22.1c0.1,0.9,0.2,1.7,0.3,2.2l0,0C53.7,54.1,70.2,44.7,70.1,24.2z M91.8,30.2
			c-1.2,3.3-2.9,6.5-5,9.4c-6.7,9.2-16.6,14.3-23.7,16.9c-2.3,0.9-4.5,1.5-6.4,2v0c5.7,0.3,10.8-0.2,15.4-1.6
			c5.2-1.5,9.4-4,12.7-7.5C89.7,44.5,92.1,37.7,91.8,30.2L91.8,30.2z"/>
	</g>
</g>
</svg>
